<svg xmlns="http://www.w3.org/2000/svg" width="71.559" height="57.031" viewBox="0 0 71.559 57.031">
  <g id="Group_7827" data-name="Group 7827" transform="translate(0 -5.991)">
    <path id="Path_8288" data-name="Path 8288" d="M61.418,12.917c-5.429-5.2-10.851-7.5-16.113-6.807-6.416.839-10.554,5.849-11.909,7.748a9.584,9.584,0,0,1-7.3-6.792,1.213,1.213,0,0,0-2.371.514A12.046,12.046,0,0,0,33.743,16.4l.811.137.429-.7c.04-.065,4.036-6.472,10.653-7.327,4.493-.583,9.238,1.49,14.1,6.154A26.177,26.177,0,0,1,65.912,44.2c-4.282,10.207-13.8,16.635-24.3,16.282l-.1,0-.1.015c-.087.015-8.94,1.154-19.217-4.994l-.918-.532-.661.829a3.351,3.351,0,0,1-2.316,1.13c-1.479.1-3.243-.834-5.065-2.656a4.005,4.005,0,0,0-4.413-.945C7.673,53.8,5,55.578,5,61.8a1.213,1.213,0,0,0,2.425,0c0-3.89,1.2-5.773,2.325-6.239a1.572,1.572,0,0,1,1.769.418c2.38,2.382,4.716,3.506,6.982,3.36a5.775,5.775,0,0,0,3.251-1.294A36.144,36.144,0,0,0,39.41,63.022a18.984,18.984,0,0,0,2.231-.114c11.427.257,21.847-6.663,26.507-17.771A28.511,28.511,0,0,0,61.418,12.917Z" transform="translate(1.063 0)"/>
    <path id="Path_8289" data-name="Path 8289" d="M7.767,46.712c5.57-3.315,13.9,1.128,13.987,1.174l.863.468.637-.746c3.547-4.15,8.98-2.437,9.2-2.366l1.408.47.179-1.473c.409-3.349,5.133-5.156,5.182-5.174l.791-.3V30.505l-.675-.333c-3.366-1.665-3.568-6.085-3.57-6.125l-.03-.977-.96-.178C20.592,20.26,18.552,10.338,18.472,9.916a1.213,1.213,0,0,0-2.385.438c.087.479,2.268,11.542,17.361,14.743a9.726,9.726,0,0,0,4.144,6.872V37.13c-1.482.7-4.6,2.485-5.647,5.5a11.065,11.065,0,0,0-9.882,2.7c-2.491-1.164-9.872-4.07-15.529-.709C2.2,47.2,0,52.769,0,61.179a1.213,1.213,0,0,0,2.425,0C2.425,53.69,4.222,48.822,7.767,46.712Z" transform="translate(0 0.623)"/>
  </g>
</svg>
